<svg xmlns="http://www.w3.org/2000/svg" xmlns:xlink="http://www.w3.org/1999/xlink" version="1.1" id="Layer_2" x="0px" y="0px" width="100px" height="87.831px" viewBox="5.0 -8.7831 100.0 118.57185" enable-background="new 0 0 100 87.831" xml:space="preserve">
<path fill-rule="evenodd" clip-rule="evenodd" d="M61.69,31.417c1.724-2.058,2.197-3.27,6.978-3.372  c4.781-0.102,6.405,3.255,6.405,3.255l4.952,8.382h-3.929l-1.916-3.422l-0.328,3.422H63.504l-0.046-3.635l-1.64,3.635h-5.262  C58.102,36.971,60.557,32.771,61.69,31.417z M62.646,76.72h-3.774l1.213-7.937h4.744L62.646,76.72z M78.012,76.72h-3.908  l-2.034-7.937h4.671L78.012,76.72z"/>
<path fill-rule="evenodd" clip-rule="evenodd" d="M44.626,31.467l5.342,8.215h6.15l-5.863-11.581c0,0-3.833-9.343-9.578-9.583  h-5.134h-5.156c-8.254,0-9.577,9.583-9.577,9.583l-3.197,11.581h5.488l2.981-8.455l0.267,8.455h18.173L44.626,31.467z   M31.909,86.244h-4.923l0.292-17.46h6.667L31.909,86.244z M44.446,86.169l-4.819,0.074l-2.617-17.46h7.166L44.446,86.169z"/>
<polygon fill-rule="evenodd" clip-rule="evenodd" points="97.049,59.789 3.032,59.789 0.001,42.328 100.001,42.328 "/>
<path fill-rule="evenodd" clip-rule="evenodd" d="M69.313,26.984c3.218,0,5.82-2.617,5.82-5.83c0-3.199-2.603-5.811-5.82-5.811  c-3.217,0-5.82,2.611-5.82,5.811C63.493,24.367,66.097,26.984,69.313,26.984"/>
<path fill-rule="evenodd" clip-rule="evenodd" d="M35.972,15.873c4.39,0,7.944-3.542,7.944-7.926C43.917,3.558,40.362,0,35.972,0  c-4.392,0-7.929,3.558-7.929,7.947C28.043,12.332,31.581,15.873,35.972,15.873"/>
<rect x="3.176" y="62.434" fill-rule="evenodd" clip-rule="evenodd" width="93.65" height="3.704"/>
<rect x="81.482" y="68.784" fill-rule="evenodd" clip-rule="evenodd" width="4.762" height="19.047"/>
<rect x="13.758" y="68.784" fill-rule="evenodd" clip-rule="evenodd" width="4.762" height="19.047"/>
<text x="0.0" y="103.201425" font-size="4.39155" font-weight="bold" font-family="Helvetica Neue, Helvetica, Arial-Unicode, Arial, Sans-serif" fill="#000000">Created by Jaap Knevel</text><text x="0.0" y="107.592975" font-size="4.39155" font-weight="bold" font-family="Helvetica Neue, Helvetica, Arial-Unicode, Arial, Sans-serif" fill="#000000">from the Noun Project</text></svg>