<svg xmlns="http://www.w3.org/2000/svg" xmlns:xlink="http://www.w3.org/1999/xlink" version="1.1" id="Layer_1" x="0px" y="0px" width="50px" height="50px" viewBox="2.5 -5.0 50.0 67.5" enable-background="new 0 0 50 50" xml:space="preserve">
<g>
	<path fill-rule="evenodd" clip-rule="evenodd" fill="#000000" d="M22.369,27.864c0.955,3.525,0.044,6.035-1.729,8.121   c-0.823,0.6-0.602,1.221-0.224,1.818c3.107,0,6.237,0,9.344,0c0.443-0.289,0.377-1.443-0.487-1.773   c-1.688-2.662-2.641-5.283-1.975-8.057c0.53-0.486,0.554-0.842,0.042-1.064c-1.108-0.441-1.13-1.975-0.775-2.531   c0.398-0.223,0.51-0.377,0.309-0.779c2.376-0.441,1.644-0.816-0.175-1.02c-0.024-0.199-0.024-0.486-0.045-0.709   c-1.064,0-2.132,0-3.197,0c0.022,0.309-0.021,0.465,0,0.756c-2.308,0-2.085,0.752-0.155,0.973c-0.2,0.27-0.289,0.533,0.223,0.801   c0.266,0.936,0,1.688-0.798,2.311C22.124,26.798,21.657,26.995,22.369,27.864z"/>
	<g>
		<g>
			<g>
				<path fill-rule="evenodd" clip-rule="evenodd" fill="#000000" d="M42.05,19.511c0-5.01-4.076-9.086-9.085-9.086      s-9.083,4.076-9.083,9.086v2.492h2.024v-2.492c0-3.895,3.169-7.063,7.059-7.063c3.894,0,7.061,3.168,7.061,7.063H42.05z"/>
			</g>
		</g>
		<g>
			<g>
				<path fill-rule="evenodd" clip-rule="evenodd" fill="#000000" d="M9.618,19.511c0-3.895,3.167-7.063,7.061-7.063      c3.89,0,7.06,3.168,7.06,7.063v2.492h2.023v-2.492c0-5.01-4.075-9.086-9.083-9.086c-5.01,0-9.084,4.076-9.084,9.086H9.618z"/>
			</g>
		</g>
		<g>
			<g>
				<path fill-rule="evenodd" clip-rule="evenodd" fill="#000000" d="M36.404,3.011c-1.381-1.104-3.119-1.715-4.892-1.715      c-4.32,0-7.834,3.516-7.834,7.836v7.557h2.023V9.132c0-3.205,2.606-5.811,5.811-5.811c1.334,0,2.589,0.439,3.626,1.268      L36.404,3.011z"/>
			</g>
		</g>
		<g>
			<g>
				<path fill-rule="evenodd" clip-rule="evenodd" fill="#000000" d="M13.874,4.899c1.08-1.014,2.497-1.578,3.982-1.578      c3.205,0,5.811,2.605,5.811,5.811v2.109h2.023V9.132c0-4.32-3.513-7.836-7.834-7.836c-2.006,0-3.912,0.756-5.371,2.135      L13.874,4.899z"/>
			</g>
		</g>
	</g>
	<rect x="7.233" y="46.839" fill="#000000" width="35.534" height="0.709"/>
	<path fill="#000000" d="M46.052,41.896c-0.888-0.693-2.887-1.867-1.354-2.729h0.619c0.246,0,0.444-0.174,0.444-0.387   c0-0.209-0.198-0.383-0.444-0.383H4.746c-0.243,0-0.443,0.174-0.443,0.383c0,0.213,0.2,0.387,0.443,0.387H5.59   c1.398,0.793-2.663,2.85-1.646,3.617h42.079C46.25,42.677,46.313,42.427,46.052,41.896z"/>
	<path fill="#000000" d="M3.904,43.575c0,0.275,0,0.547,0,0.822c0.931,0,1.865,0,2.797,0c0,1.441,0,2.861,0,4.307   c12.316,0,24.656,0,36.975,0c0-1.465,0-2.953,0-4.416c0.801,0,1.577,0,2.353,0c0-0.244,0-0.469,0-0.713c-0.354,0-0.689,0-1.043,0   l0,0H3.904z M42.767,47.548H7.233v-1.477h35.534V47.548z"/>
</g>
<text x="0.0" y="58.75" font-size="2.5" font-weight="bold" font-family="Helvetica Neue, Helvetica, Arial-Unicode, Arial, Sans-serif" fill="#000000">Created by Mister Pixel</text><text x="0.0" y="61.25" font-size="2.5" font-weight="bold" font-family="Helvetica Neue, Helvetica, Arial-Unicode, Arial, Sans-serif" fill="#000000">from the Noun Project</text></svg>