<svg xmlns:dc="http://purl.org/dc/elements/1.1/" xmlns:cc="http://creativecommons.org/ns#" xmlns:rdf="http://www.w3.org/1999/02/22-rdf-syntax-ns#" xmlns:svg="http://www.w3.org/2000/svg" xmlns="http://www.w3.org/2000/svg" xmlns:sodipodi="http://sodipodi.sourceforge.net/DTD/sodipodi-0.dtd" xmlns:inkscape="http://www.inkscape.org/namespaces/inkscape" width="100" height="100" id="svg3785" version="1.1" inkscape:version="0.48.4 r9939" inkscape:export-filename="C:\Documents and Settings\t03604\Escritorio\Triodos-Bank\maquetas\v_0-1\img\ico-info.png" inkscape:export-xdpi="18.629999" inkscape:export-ydpi="18.629999" sodipodi:docname="icon-info.svg" viewBox="5.0 -10.0 100 135.0">
  <title id="title2998">Info icon</title>
  <defs id="defs3787"/>
  <sodipodi:namedview id="base" pagecolor="#ffffff" bordercolor="#666666" borderopacity="1.0" inkscape:pageopacity="0.0" inkscape:pageshadow="2" inkscape:zoom="2.8284271" inkscape:cx="25.053339" inkscape:cy="38.46114" inkscape:document-units="px" inkscape:current-layer="layer1" showgrid="false" inkscape:window-width="1054" inkscape:window-height="851" inkscape:window-x="103" inkscape:window-y="111" inkscape:window-maximized="0"/>
  <metadata id="metadata3790">
    <rdf:RDF>
      <cc:Work rdf:about="">
        <dc:format>image/svg+xml</dc:format>
        <dc:type rdf:resource="http://purl.org/dc/dcmitype/StillImage"/>
        <dc:title>Info icon</dc:title>
        <dc:date>2014-05-19</dc:date>
        <dc:creator>
          <cc:Agent>
            <dc:title>Gonzalo Bravo</dc:title>
          </cc:Agent>
        </dc:creator>
        <dc:rights>
          <cc:Agent>
            <dc:title>http://creativecommons.org/licenses/by/3.0/us/</dc:title>
          </cc:Agent>
        </dc:rights>
        <dc:subject>
          <rdf:Bag>
            <rdf:li>info</rdf:li>
            <rdf:li>icon</rdf:li>
            <rdf:li>information</rdf:li>
            <rdf:li>informacion</rdf:li>
            <rdf:li>icono</rdf:li>
          </rdf:Bag>
        </dc:subject>
      </cc:Work>
    </rdf:RDF>
  </metadata>
  <g inkscape:label="Capa 1" inkscape:groupmode="layer" id="layer1" transform="translate(0,-952.36218)">
    <path sodipodi:type="arc" style="fill:#000000;fill-opacity:1;stroke:#1c5180;stroke-width:0;stroke-linecap:round;stroke-linejoin:round;stroke-miterlimit:4;stroke-opacity:1;stroke-dasharray:none" id="path3793" sodipodi:cx="251.42857" sodipodi:cy="443.79074" sodipodi:rx="134.28572" sodipodi:ry="148.57143" d="m 385.71429,443.79074 a 134.28572,148.57143 0 1 1 -268.57144,0 134.28572,148.57143 0 1 1 268.57144,0 z" transform="matrix(0.33510637,0,0,0.30288462,-34.255316,867.94479)"/>
    <g style="font-size:47.97503661999999700px;font-style:normal;font-weight:normal;line-height:125%;letter-spacing:0px;word-spacing:0px;fill:#ffffff;fill-opacity:1;stroke:none;font-family:Sans" id="text4303">
      <path d="m 55.734509,972.53004 c 1.742822,6e-5 3.211588,0.60443 4.406301,1.81312 1.194666,1.2088 1.792011,2.67054 1.792036,4.38522 -2.5e-5,1.71478 -0.604398,3.17652 -1.813119,4.38522 -1.208768,1.20879 -2.670506,1.81316 -4.385218,1.81312 -1.68664,4e-5 -3.134323,-0.60433 -4.343052,-1.81312 -1.20876,-1.2087 -1.813133,-2.67044 -1.813119,-4.38522 -1.4e-5,-1.71468 0.597331,-3.17642 1.792036,-4.38522 1.194675,-1.20869 2.649385,-1.81306 4.364135,-1.81312 z m 2.614265,19.39616 -8.64394,29.9797 c -0.477889,1.7148 -0.716827,2.8392 -0.716814,3.3733 -1.3e-5,0.3092 0.126484,0.5973 0.37949,0.8643 0.25298,0.2671 0.520028,0.4006 0.801145,0.4006 0.477863,0 0.955738,-0.2108 1.433629,-0.6325 1.264951,-1.04 2.782909,-2.9234 4.553881,-5.6501 l 1.433629,0.8433 c -4.244683,7.393 -8.756394,11.0895 -13.535145,11.0895 -1.82718,0 -3.28189,-0.513 -4.364135,-1.539 -1.082251,-1.0261 -1.623376,-2.3262 -1.623374,-3.9003 -2e-6,-1.0401 0.238936,-2.3613 0.716815,-3.9636 l 5.861012,-20.1551 c 0.562199,-1.9396 0.843302,-3.40137 0.843311,-4.38527 -9e-6,-0.61839 -0.267057,-1.16654 -0.801145,-1.64445 -0.534105,-0.47785 -1.264974,-0.71678 -2.192609,-0.71682 -0.421662,4e-5 -0.927648,0.0141 -1.51796,0.0422 l 0.548152,-1.68663 14.294124,-2.3191 z" style="font-size:86.35506438999999500px;font-style:italic;font-variant:normal;font-weight:bold;font-stretch:normal;text-align:start;writing-mode:lr-tb;text-anchor:start;font-family:Times New Roman;-inkscape-font-specification:'Times New Roman, Bold Italic';fill:#ffffff" id="path2996"/>
    </g>
  </g>
<text x="0" y="117.5" font-size="5.0" font-weight="bold" font-family="Helvetica Neue, Helvetica, Arial-Unicode, Arial, Sans-serif" fill="#000000">Created by Gonzalo Bravo</text><text x="0" y="122.5" font-size="5.0" font-weight="bold" font-family="Helvetica Neue, Helvetica, Arial-Unicode, Arial, Sans-serif" fill="#000000">from the Noun Project</text></svg>