<?xml version="1.0" encoding="utf-8"?>
<!-- Generator: Adobe Illustrator 16.0.0, SVG Export Plug-In . SVG Version: 6.00 Build 0)  -->
<!DOCTYPE svg PUBLIC "-//W3C//DTD SVG 1.1//EN" "http://www.w3.org/Graphics/SVG/1.1/DTD/svg11.dtd">
<svg version="1.1" id="Layer_1" xmlns="http://www.w3.org/2000/svg" xmlns:xlink="http://www.w3.org/1999/xlink" x="0px" y="0px"
	 width="841.89px" height="595.28px" viewBox="0 0 841.89 595.28" enable-background="new 0 0 841.89 595.28" xml:space="preserve">
<path fill-rule="evenodd" clip-rule="evenodd" fill="#A7C136" d="M220.331,377.884c-44.152-1.541-78.701-38.59-77.159-82.744
	c1.539-44.16,38.591-78.702,82.744-77.158c30.526,1.066,56.454,19.101,69.046,44.722c1.938,0.06,3.879,0.065,5.834-0.296
	c-13.065-28.426-41.295-48.614-74.693-49.781c-47.169-1.646-86.74,35.255-88.39,82.429c-1.644,47.164,35.253,86.737,82.426,88.386
	c12.796,0.444,25.026-1.965,36.1-6.629c-0.533-1.657-0.865-3.554-1.416-5.418C244.273,375.954,232.579,378.312,220.331,377.884z"/>
<g>
	<path fill="none" d="M585.664,300.218"/>
</g>
<g>
	<path fill="#389898" d="M315.179,294.458h13.096v21.973c-3.711,1.582-7.657,2.373-11.836,2.373c-4.98,0-8.814-1.895-11.499-5.684
		c-2.686-3.789-4.028-9.248-4.028-16.377c0-6.875,1.538-12.256,4.614-16.143c3.076-3.886,7.378-5.83,12.905-5.83
		c3.417,0,6.68,0.879,9.785,2.637l-2.52,6.504c-2.422-1.406-4.688-2.109-6.797-2.109c-3.028,0-5.425,1.353-7.192,4.058
		c-1.768,2.706-2.651,6.392-2.651,11.06c0,4.805,0.64,8.487,1.919,11.045c1.279,2.559,3.139,3.838,5.581,3.838
		c1.289,0,2.597-0.166,3.926-0.498v-9.814h-5.303V294.458z"/>
	<path fill="#389898" d="M354.114,318.219h-19.307v-42.833h19.307v6.885h-11.338v10.195h10.518v6.915h-10.518v11.865h11.338V318.219
		z"/>
	<path fill="#389898" d="M389.827,296.744c0,7.09-1.329,12.54-3.984,16.348c-2.656,3.809-6.456,5.713-11.396,5.713
		c-4.961,0-8.77-1.9-11.426-5.699c-2.656-3.798-3.984-9.271-3.984-16.42c0-7.09,1.328-12.524,3.984-16.304
		c2.656-3.779,6.484-5.669,11.484-5.669c4.941,0,8.73,1.9,11.367,5.698C388.509,284.209,389.827,289.654,389.827,296.744z
		 M367.181,296.744c0,4.883,0.615,8.604,1.846,11.163s3.037,3.838,5.42,3.838c4.805,0,7.207-5,7.207-15c0-10-2.383-15-7.148-15
		c-2.422,0-4.248,1.274-5.479,3.823S367.181,291.841,367.181,296.744z"/>
	<path fill="#A7C136" d="M404.816,307.202c0,0.48,0.288,1.08,0.864,1.8c0.576,0.721,1.224,1.08,1.944,1.08
		c0.767,0,2.124-0.659,4.068-1.98c1.944-1.318,3.251-1.979,3.924-1.979c0.335,0,0.504,0.097,0.504,0.288
		c0,0.864-2.041,3.408-6.12,7.633c-2.16,2.256-4.32,3.383-6.48,3.383c-1.632,0-3.096-0.6-4.392-1.799
		c-1.296-1.199-2.136-2.617-2.52-4.248c-0.336-1.393-0.457-3.024-0.36-4.896c-4.655,4.273-7.56,6.385-8.712,6.336h-0.288
		c-0.096-0.047-0.144-0.168-0.144-0.359c0,0.143,0.121-0.119,0.36-0.793c0.72-0.623,1.681-1.656,2.88-3.096
		c1.344-1.631,2.279-2.688,2.808-3.168c1.728-2.256,3.48-4.512,5.256-6.768c2.495-3.071,4.631-4.608,6.408-4.608
		c1.536,0,2.304,1.44,2.304,4.32c0,1.152-0.385,2.664-1.152,4.537C405.2,304.754,404.816,306.194,404.816,307.202z M417.632,270.914
		c0,1.152-0.637,2.137-1.908,2.952c-1.272,0.817-2.532,1.224-3.78,1.224c-1.344,0-2.761-0.456-4.248-1.368
		c-1.728-1.008-2.592-2.16-2.592-3.456c0-1.152,0.672-2.111,2.016-2.88c1.104-0.671,2.279-1.008,3.528-1.008
		c1.296,0,2.736,0.432,4.32,1.296C416.743,268.635,417.632,269.715,417.632,270.914z"/>
	<path fill="#A7C136" d="M426.703,304.25c0,0.529,0.12,1.512,0.361,2.952c1.343-1.823,2.664-3.647,3.959-5.472
		c2.017-2.4,3.72-3.6,5.112-3.6c2.64,0,3.96,1.848,3.96,5.543c0,0.625,0.023,1.561,0.072,2.809c0.047,1.248,0.072,2.16,0.072,2.736
		c0,1.775,0.72,2.664,2.16,2.664c1.535,0,3.023-0.623,4.463-1.873c2.977-2.592,6.697-5.903,11.16-9.936l0.504,0.359
		c-0.24,0.674-0.719,1.537-1.439,2.593c-0.576,0.816-1.129,1.632-1.656,2.448c-3.408,5.471-5.328,8.496-5.76,9.072
		c-2.881,3.695-5.785,5.543-8.712,5.543c-3.409,0-5.688-1.32-6.841-3.959c-0.719-1.584-1.151-4.656-1.295-9.217
		c-0.674-0.047-1.584,0.984-2.736,3.096c-1.776,3.217-2.904,5.16-3.385,5.832c-1.584,2.113-3.191,3.168-4.823,3.168
		c-1.152,0-2.088-0.648-2.808-1.943c-0.576-1.055-0.864-2.207-0.864-3.457c0-0.67,0.167-1.584,0.504-2.734
		c0.335-1.152,0.504-2.041,0.504-2.664c0,0.287,0.047-0.072,0.144-1.08c0.047-0.576-0.025-0.865-0.216-0.865
		c-1.008,0-2.268,0.757-3.78,2.269c-1.512,1.513-2.772,2.292-3.78,2.341l-0.504-0.217l0.36-1.008
		c2.304-2.783,4.631-5.568,6.984-8.352c3.6-4.321,5.855-6.48,6.768-6.48c1.152,0,1.729,1.656,1.729,4.968
		c0,0.72-0.036,1.608-0.107,2.664C426.74,303.507,426.703,304.106,426.703,304.25z"/>
	<path fill="#A7C136" d="M473.359,298.85c0,3.361-0.385,7.344-1.152,11.953c-0.768,3.936-1.537,7.883-2.303,11.844
		c-0.77,3.959-1.152,6.275-1.152,6.947c0,1.969,0.592,3.504,1.777,4.609c0.426-0.914,0.828-1.801,1.207-2.664
		c0.568-1.346,1.09-2.018,1.564-2.018c0.33,0,0.686,0.264,1.066,0.793c-0.096,1.152,0.023,2.279,0.359,3.385
		c0.336,1.104,0.506,1.918,0.506,2.447c0,0.959,0.035,2.398,0.107,4.32c0.072,1.918,0.107,3.336,0.107,4.248
		c0,1.342-0.676,2.016-2.025,2.016c-0.436,0-0.918-0.098-1.449-0.289c-3.473-1.295-6.127-3.912-7.961-7.848
		c-1.545-3.311-2.316-7.031-2.316-11.16c0-2.064,0.623-7.176,1.873-15.336c-2.641,1.346-4.777,2.018-6.408,2.018
		c-1.633,0-2.977-0.602-4.033-1.801s-1.584-2.641-1.584-4.32c0-3.456,2.137-7.031,6.408-10.728c3.504-3.071,7.248-5.352,11.232-6.84
		c0.479-0.191,0.91-0.288,1.295-0.288l0.145,0.072c0,1.825-1.367,3.792-4.104,5.904c-2.496,1.825-4.992,3.648-7.488,5.472
		c-2.689,2.257-4.031,4.441-4.031,6.553c0,1.295,0.311,1.943,0.936,1.943c-0.193,0,0.145-0.023,1.008-0.072
		c3.6-1.823,6.863-5.543,9.793-11.16c0.383-0.815,1.104-1.224,2.158-1.224C471.871,297.626,473.359,298.035,473.359,298.85z"/>
	<path fill="#A7C136" d="M501.871,292.586c1.775,0,2.664,1.052,2.664,3.155c0,2.486-1.152,6.622-3.457,12.407
		c0,0.191,0,0.479,0,0.86c0,0.335,0,0.622,0,0.86c0,0.623,0.168,0.934,0.504,0.934s1.621-0.756,3.854-2.269
		c2.23-1.512,3.658-2.269,4.283-2.269c0.336,0,0.504,0.121,0.504,0.361c0,0.575-1.295,2.544-3.889,5.902
		c-2.688,3.555-4.512,5.328-5.471,5.328c-1.393,0-2.785-0.479-4.176-1.439c-1.393-0.959-2.088-2.088-2.088-3.383
		c0,0.24-0.145-1.08-0.434-3.961c-3.455,5.857-6.504,8.783-9.143,8.783c-1.729,0-3.373-0.84-4.934-2.525
		c-1.559-1.686-2.34-3.395-2.34-5.127c0-1.974,1.199-5.391,3.602-10.254c2.494-5.053,4.51-7.581,6.047-7.581
		c0.768,0,1.439,0.313,2.016,0.936c0.576,0.625,0.865,1.321,0.865,2.088c0,1.249-0.865,3.589-2.592,7.02
		c-1.729,3.433-2.592,5.484-2.592,6.156c0,0.48,0.143,0.912,0.432,1.295c1.535-1.055,3.215-2.687,5.039-4.895
		c2.639-3.216,4.152-5.016,4.537-5.4c0.383-0.384,1.27-1.608,2.664-3.672c1.104-1.536,2.135-2.544,3.096-3.024
		C501.197,292.683,501.535,292.586,501.871,292.586z"/>
	<path fill="#A7C136" d="M520.592,307.202c0,0.48,0.287,1.08,0.863,1.8c0.576,0.721,1.225,1.08,1.943,1.08
		c0.768,0,2.125-0.659,4.068-1.98c1.943-1.318,3.252-1.979,3.924-1.979c0.336,0,0.504,0.097,0.504,0.288
		c0,0.864-2.041,3.408-6.119,7.633c-2.16,2.256-4.32,3.383-6.48,3.383c-1.633,0-3.096-0.6-4.393-1.799
		c-1.295-1.199-2.135-2.617-2.52-4.248c-0.336-1.393-0.457-3.024-0.359-4.896c-4.656,4.273-7.561,6.385-8.713,6.336h-0.287
		c-0.096-0.047-0.145-0.168-0.145-0.359c0,0.143,0.121-0.119,0.359-0.793c0.721-0.623,1.682-1.656,2.881-3.096
		c1.344-1.631,2.279-2.688,2.809-3.168c1.727-2.256,3.479-4.512,5.256-6.768c2.494-3.071,4.631-4.608,6.408-4.608
		c1.535,0,2.303,1.44,2.303,4.32c0,1.152-0.385,2.664-1.152,4.537C520.975,304.754,520.592,306.194,520.592,307.202z
		 M533.406,270.914c0,1.152-0.637,2.137-1.908,2.952c-1.271,0.817-2.531,1.224-3.779,1.224c-1.344,0-2.76-0.456-4.248-1.368
		c-1.729-1.008-2.592-2.16-2.592-3.456c0-1.152,0.672-2.111,2.016-2.88c1.104-0.671,2.279-1.008,3.529-1.008
		c1.295,0,2.734,0.432,4.318,1.296C532.518,268.635,533.406,269.715,533.406,270.914z"/>
	<path fill="#A7C136" d="M552.775,298.562c0,1.296-0.432,2.617-1.297,3.96c-0.863,1.345-2.016,2.353-3.455,3.024
		c-1.105,0.48-2.857,0.889-5.256,1.223c-2.4,0.337-4.225,0.457-5.473,0.361c-0.385,0.336-0.576,1.248-0.576,2.734
		c0,0.865,0.336,1.609,1.008,2.232c0.672,0.625,1.465,0.938,2.377,0.938c2.639,0,7.031-1.775,13.176-5.329
		c5.52-3.168,9.551-5.951,12.096-8.352l-0.432,0.288l0.145-0.072l0.936,1.225c-2.689,3.936-5.377,7.872-8.064,11.807
		c-3.793,4.85-7.537,7.273-11.232,7.273c-4.463,0-8.207-1.008-11.23-3.025c-3.553-2.303-5.328-5.566-5.328-9.791
		c0-3.552,1.738-6.912,5.219-10.081c3.48-3.168,6.996-4.752,10.549-4.752C550.494,292.226,552.775,294.339,552.775,298.562z
		 M538.592,302.954c0.768,0.048,1.342,0.072,1.727,0.072c1.297,0,2.545-0.659,3.744-1.979s1.801-2.628,1.801-3.925
		c0-0.432-0.264-0.6-0.793-0.504c-2.062,0.913-3.48,1.656-4.248,2.232C539.287,300.002,538.543,301.37,538.592,302.954z"/>
	<path fill="#A7C136" d="M583.23,308.715c0.047,0.912-1.561,3.359-4.824,7.344c-3.455,4.223-6.072,6.336-7.848,6.336
		c-2.352,0-4.297-1.379-5.832-4.137c-1.248-2.275-1.871-4.67-1.871-7.188c0-2.66,0.238-4.885,0.719-6.676h-0.072
		c-0.385-0.047-1.439,0.924-3.168,2.916c-1.727,1.992-2.951,2.988-3.672,2.988c-0.287,0-0.527-0.096-0.719-0.289
		c-0.191-0.191-0.24-0.385-0.145-0.578c2.16-3.415,4.32-6.855,6.48-10.32c3.455-5.629,5.615-10.177,6.479-13.642
		c-10.465,0.049-16.727-0.36-18.791-1.227c-0.432-0.192-0.648-0.577-0.648-1.155c0-0.336,0.121-0.673,0.359-1.01
		c2.498-0.721,3.889-1.106,4.178-1.154c0.768-0.192,2.184-0.289,4.246-0.289h12.168c2.594-7.002,5.592-13.266,9-18.792h0.072
		l0.576,1c-0.047,3.383-1.152,8.766-3.311,16.148c-0.098,0.238-0.266,0.786-0.506,1.644h9.938c1.871,0,4.654,0,8.352,0
		c3.695,0,6.48,0,8.352,0c1.535,0,2.305,0.529,2.305,1.584c0,2.16-1.609,3.24-4.824,3.24h-25.488
		c-2.447,8.928-3.672,15.528-3.672,19.799c0,1.008,0.096,2.425,0.287,4.248c0.191,1.824,0.289,3.193,0.289,4.104l0.791,0.648
		c1.729-0.047,3.877-1.223,6.445-3.527c2.566-2.305,3.924-3.456,4.068-3.456c0.189,0,0.311,0.071,0.359,0.216
		c0.047,0.145,0.047,0.336,0,0.576C583.254,308.402,583.23,308.619,583.23,308.715z"/>
	<path fill="#A7C136" d="M603.463,303.891c0,3.696-1.105,7.225-3.312,10.584c-2.496,3.791-5.545,5.688-9.145,5.688
		c-3.023,0-5.354-1.008-6.984-3.023c-1.439-1.775-2.16-4.057-2.16-6.84c0-3.696,1.584-7.607,4.752-11.736
		c3.359-4.416,6.77-6.624,10.225-6.624C601.254,291.938,603.463,295.923,603.463,303.891z M597.055,297.266
		c-2.402,0-4.465,1.561-6.193,4.68c-1.488,2.735-2.23,5.399-2.23,7.991c0,0.721,0.275,1.297,0.826,1.729
		c0.553,0.432,1.189,0.648,1.908,0.648c1.393,0,2.809-1.297,4.248-3.889c1.344-2.398,2.018-4.367,2.018-5.903
		C597.631,299.02,597.438,297.266,597.055,297.266z"/>
	<path fill="#A7C136" d="M628.373,294.386c-0.385-0.576-1.199-0.864-2.447-0.864c-1.777,0-3.553,0.457-5.328,1.368
		c-1.92,1.057-2.881,2.28-2.881,3.672c0,1.488,1.297,3.168,3.889,5.039c2.352,1.729,4.703,3.434,7.057,5.113
		c2.592,2.303,3.887,4.705,3.887,7.199c0,3.504-1.799,5.615-5.4,6.336c-2.496,0.527-4.031,0.793-4.607,0.793
		c-0.961,0-2.545-0.338-4.752-1.008c-2.879-0.914-5.195-2.102-6.947-3.564c-1.754-1.465-3.301-3.492-4.645-6.084
		c-0.145-0.24-0.217-0.457-0.217-0.648c0-1.055,0.553-1.584,1.656-1.584c0.48,0,2.064,0.553,4.752,1.656s4.824,1.656,6.408,1.656
		c2.688,0,4.033-0.623,4.033-1.873c0-0.863-0.984-2.231-2.953-4.104c-1.344-1.199-2.713-2.399-4.104-3.6
		c-0.961-1.008-1.439-2.232-1.439-3.672c0-1.92,0.6-3.528,1.799-4.825c1.393-1.487,2.279-2.376,2.664-2.664
		c1.008-0.912,2.088-1.631,3.24-2.16c1.873-0.816,3.936-1.224,6.191-1.224c2.783,0,5.088,0.648,6.912,1.944
		c2.064,1.44,3.098,3.553,3.098,6.336c0,1.825-0.746,3.373-2.232,4.643c-1.488,1.273-3.145,1.908-4.969,1.908
		c-1.393,0-2.676-0.504-3.852-1.512c-1.178-1.008-1.764-2.207-1.764-3.6c0-0.96,0.49-1.908,1.475-2.844
		S628.373,294.674,628.373,294.386z"/>
</g>
<path fill="#A7C136" d="M219.778,241.209l-0.251-0.078c-8.537-2.69-16.517-1.892-24.44,2.234l0,0l-0.08,0.253l-0.584,0.09
	c-7.341,4.035-12.318,10.198-14.929,18.482c0,0,0,0-0.079,0.251c-2.058,6.53-2.12,12.855,0.234,19.396
	c0.359,1.494,1.219,3.145,1.907,4.464c0.172,0.332,0.172,0.332,0.342,0.663c5.282-2.754,10.596-3.84,16.184-3.182
	c-1.268-1.229-2.456-2.71-3.065-4.281c-1.031-1.979-1.562-3.802-1.843-5.546c-0.29-2.577-0.41-4.822,0.381-7.333
	c0.95-3.014,2.825-5.458,4.871-7.573c1.066-0.769,2.139-1.536,3.13-2.052l0.66-0.345c1.321-0.686,2.562-1.122,3.803-1.562
	c2.985-0.715,5.986-0.597,8.999,0.354c2.262,0.712,4.36,1.926,6.054,3.562c1.521,1.307,2.633,3.037,3.743,4.768
	c0.86,1.651,1.391,3.476,1.745,4.967c2.587-4.703,6.772-8.353,11.805-11.187c0.08-0.249-0.091-0.58-0.341-0.66
	c-0.61-1.571-1.55-2.97-2.567-4.119C231.7,247.173,226.479,243.597,219.778,241.209z"/>
<path fill="#389898" d="M181.24,287.308c-1.572,0.608-2.973,1.548-4.374,2.486c-5.428,4.084-9.003,9.31-11.139,16.086l0,0
	c-0.316,1.006-0.554,1.759-0.791,2.513c-1.717,7.189-0.854,14.084,2.256,20.861c0.172,0.33,0.346,0.659,0.519,0.989
	c0,0,0,0,0.251,0.079l0.09,0.583c4.038,7.343,10.195,12.317,18.483,14.93l0,0c6.527,2.057,13.108,2.2,19.566,0.096
	c1.573-0.61,3.146-1.22,4.546-2.158c0.251,0.078,0.579-0.094,0.658-0.343c5.284-2.75,9.22-6.48,12.059-11.106
	c1.293-2.354,2.256-4.535,3.047-7.046c0.553-1.756,0.777-3.34,1.003-4.927c0.316-1.003,0.302-1.838,0.539-2.591
	c0.406-5.67-0.681-10.978-3.435-16.264c0,0,0,0-0.17-0.331c0,0,0,0-0.171-0.329c0,0,0,0,0.078-0.25l-0.329,0.172l-0.095-0.581
	c-0.173-0.332-0.343-0.662-0.515-0.992c-2.659-4.703-6.468-8.386-10.922-10.892c-1.599-1.06-3.275-1.862-5.287-2.496
	c-0.421-0.408-0.926-0.566-1.676-0.804c-2.512-0.791-4.851-1.253-7.351-1.211c-5.588-0.658-10.901,0.428-16.184,3.182
	C181.648,286.886,181.319,287.056,181.24,287.308z M200.844,299.557c1.505,0.474,3.011,0.948,4.107,1.848
	c0.927,0.566,1.854,1.133,2.696,1.955c1.272,1.225,2.29,2.376,2.897,3.946l0.345,0.659c0.86,1.651,1.47,3.224,1.744,4.968
	c0.096,0.583,0.11,1.415,0.201,1.997c-0.053,1.912-0.354,3.753-0.733,5.838c-1.044,2.432-2.339,4.785-3.978,6.479
	c-1.225,1.269-2.704,2.458-4.354,3.317c-1.901,0.781-3.728,1.312-5.803,1.762c-2.245,0.12-4.661-0.088-6.923-0.801
	c-3.013-0.949-5.539-2.575-7.575-4.872c-0.846-0.816-1.36-1.809-2.127-2.878l-0.517-0.991c-0.437-1.242-0.954-2.232-1.139-3.394
	c-0.715-2.985-0.928-5.812,0.102-9.078c0.713-2.262,2.176-4.282,3.812-5.975c1.06-1.599,2.79-2.712,4.519-3.822
	c1.651-0.86,3.474-1.391,5.216-1.666C195.662,298.477,198.412,298.513,200.844,299.557z"/>
<path fill="#389898" d="M263.22,254.897c-0.253-0.078-0.253-0.078-0.253-0.078c-6.529-2.059-13.188-1.949-19.476,0.487
	c-1.493,0.358-2.812,1.045-4.463,1.905c-0.253-0.08-0.332,0.173-0.664,0.342c-5.032,2.834-9.218,6.483-11.805,11.187
	c-1.542,2.275-2.506,4.454-3.124,7.297c-0.237,0.753-0.474,1.506-0.791,2.511c-0.237,0.754-0.225,1.585-0.461,2.338
	c0.011,0.834-0.226,1.587-0.214,2.418c-0.576,5.339,0.511,10.649,3.012,15.855c0,0,0.248,0.078,0.17,0.329
	c0.253,0.079,0.174,0.329,0.427,0.409c0,0,0,0-0.079,0.25c0,0,0,0,0.25,0.079l0.341,0.663c0.174,0.328,0.348,0.658,0.52,0.987
	c2.657,4.703,6.212,8.309,10.667,10.818c1.601,1.055,3.28,1.857,5.036,2.411c0.755,0.238,1.255,0.396,2.012,0.633
	c2.509,0.791,4.85,1.255,7.265,1.466c5.592,0.656,10.9-0.432,16.438-3.102c0,0,0.329-0.174,0.659-0.348
	c1.321-0.686,2.723-1.625,4.12-2.564c5.35-3.836,9.006-9.306,11.313-15.757c0.08-0.251,0.08-0.251,0.08-0.251
	c2.689-8.538,1.973-16.767-1.984-24.364c-0.171-0.329-0.171-0.329-0.171-0.329l-0.425-0.408
	C277.585,262.737,271.502,257.508,263.22,254.897z M266.281,274.079c0.768,1.072,1.614,1.889,2.051,3.132l0.345,0.662
	c0.437,1.238,1.123,2.562,1.561,3.804c0.464,2.907,0.348,5.905-0.349,8.997c-0.792,2.512-1.93,4.36-3.645,6.307
	c-1.229,1.267-2.708,2.457-4.688,3.487c-1.572,0.61-3.396,1.141-5.141,1.418c-2.403,0.623-5.073,0.334-7.583-0.456
	c-1.507-0.475-3.015-0.949-3.858-1.77c-1.177-0.647-2.103-1.214-2.951-2.031c-1.018-1.15-2.034-2.3-2.895-3.949l-0.517-0.991
	c-0.606-1.571-1.217-3.145-1.323-4.559c-0.345-0.659-0.437-1.241-0.2-1.994c-0.279-1.744,0.103-3.831,0.657-5.59
	c0.87-2.762,2.085-4.862,4.053-6.728c0.978-1.348,2.458-2.538,4.358-3.32c1.651-0.859,3.552-1.641,5.296-1.919
	c2.576-0.29,4.996-0.08,7.178,0.882C261.642,270.41,264.166,272.032,266.281,274.079z"/>
<path fill="#A7C136" d="M270.274,319.227c-0.606-1.571-1.217-3.144-2.156-4.545c0.079-0.25-0.17-0.329-0.092-0.578
	c-5.537,2.67-10.846,3.758-16.438,3.102c1.272,1.225,2.461,2.704,3.321,4.355c0.781,1.902,1.561,3.806,1.76,5.801
	c0.12,2.246-0.089,4.662-0.549,7.003c-1.281,3.187-2.826,5.46-4.872,7.575c-1.071,0.766-1.888,1.611-3.132,2.049l-0.989,0.516
	c-1.068,0.766-2.232,0.954-3.475,1.388c-2.907,0.463-5.906,0.35-8.746-0.271c-2.432-1.041-4.534-2.257-6.306-3.643
	c-1.441-1.559-2.63-3.039-3.49-4.689c-1.109-1.73-1.642-3.553-1.747-4.966c-2.839,4.626-6.774,8.356-12.059,11.106
	c0.174,0.329,0.347,0.659,0.347,0.659c0.859,1.651,1.547,2.973,2.737,4.453c3.836,5.349,9.055,8.924,15.506,11.233
	c0,0,0.252,0.079,0.503,0.158c0.752,0.237,1.505,0.474,2.589,0.539c6.936,1.636,13.755,1.023,20.608-2.337
	c0.252,0.08,0.665-0.344,0.994-0.518c0,0,0,0,0.25,0.079l0.079-0.251l0.328-0.171c7.426-4.286,12.572-10.114,15.185-18.402l0,0
	C272.567,332.095,272.38,325.686,270.274,319.227z"/>
<g>
	<g>
		<path fill="#389898" d="M503.803,359.108c0,2.344-0.651,4.241-1.953,5.693s-2.956,2.178-4.961,2.178
			c-2.278,0-4.108-0.332-5.488-0.996v-2.07c0.677,0.378,1.517,0.677,2.52,0.898s1.992,0.332,2.969,0.332
			c1.458,0,2.656-0.554,3.594-1.66s1.406-2.513,1.406-4.219c0-1.575-0.332-2.825-0.996-3.75s-1.934-1.849-3.809-2.773
			c-1.472-0.742-2.571-1.462-3.301-2.158s-1.27-1.507-1.621-2.432s-0.527-2.031-0.527-3.32c0-1.406,0.286-2.656,0.859-3.75
			s1.374-1.943,2.402-2.549s2.155-0.908,3.379-0.908c1.106,0,2.112,0.124,3.018,0.371s1.618,0.515,2.139,0.801l-0.742,1.836
			c-1.445-0.742-2.917-1.113-4.414-1.113c-1.406,0-2.549,0.479-3.428,1.436s-1.318,2.224-1.318,3.799
			c0,1.602,0.319,2.845,0.957,3.73s1.888,1.804,3.75,2.754c1.927,0.938,3.337,2.034,4.229,3.291S503.803,357.312,503.803,359.108z"
			/>
		<path fill="#389898" d="M526.998,366.589h-10.352v-28.555h10.352v1.836h-8.438v10.84h7.969v1.836h-7.969v12.207h8.438V366.589z"/>
		<path fill="#389898" d="M550.545,338.034h1.973l-6.758,28.555h-2.129l-6.719-28.555h1.992l4.648,20.078
			c0.364,1.536,0.605,2.666,0.723,3.389s0.234,1.631,0.352,2.725c0.104-0.755,0.215-1.497,0.332-2.227s0.231-1.345,0.342-1.846
			S547.159,352.279,550.545,338.034z"/>
		<path fill="#389898" d="M563.643,366.589v-28.555h1.914v28.555H563.643z"/>
		<path fill="#389898" d="M579.807,366.589v-28.555h1.914v26.719h8.047v1.836H579.807z"/>
		<path fill="#389898" d="M601.693,366.589v-28.555h1.914v26.719h8.047v1.836H601.693z"/>
		<path fill="#389898" d="M634.381,366.589l-2.52-10.352h-6.934l-2.48,10.352h-1.992l6.875-28.555h1.973l7.031,28.555H634.381z
			 M631.412,354.304l-2.52-10.645c-0.261-1.198-0.462-2.331-0.605-3.398c-0.117,1.133-0.3,2.266-0.547,3.398l-2.441,10.645H631.412z
			"/>
	</g>
</g>
<circle fill="#FFFFFF" cx="225.726" cy="298.032" r="36.159"/>
<path fill="#A7C136" d="M223.319,270.425l-0.121-0.038c-4.122-1.299-7.976-0.913-11.802,1.08l0,0l-0.039,0.121l-0.282,0.043
	c-3.545,1.949-5.948,4.925-7.208,8.926c0,0,0,0-0.039,0.121c-0.993,3.153-1.023,6.207,0.113,9.366
	c0.174,0.721,0.589,1.519,0.922,2.155c0.082,0.16,0.082,0.16,0.165,0.319c2.551-1.329,5.116-1.854,7.814-1.536
	c-0.612-0.593-1.187-1.308-1.48-2.066c-0.498-0.956-0.755-1.836-0.89-2.679c-0.141-1.245-0.198-2.329,0.184-3.541
	c0.459-1.455,1.364-2.636,2.352-3.656c0.516-0.372,1.033-0.742,1.512-0.991l0.319-0.167c0.638-0.331,1.237-0.541,1.836-0.753
	c1.441-0.346,2.891-0.289,4.345,0.17c1.093,0.344,2.106,0.931,2.924,1.72c0.735,0.631,1.271,1.467,1.808,2.303
	c0.416,0.797,0.671,1.678,0.843,2.397c1.249-2.271,3.27-4.032,5.7-5.401c0.039-0.12-0.044-0.28-0.165-0.318
	c-0.294-0.759-0.748-1.435-1.239-1.989C229.075,273.305,226.555,271.578,223.319,270.425z"/>
<path fill="#389898" d="M204.542,292.518c-0.759,0.293-1.436,0.747-2.112,1.2c-2.621,1.972-4.348,4.495-5.379,7.768l0,0
	c-0.152,0.485-0.267,0.849-0.382,1.213c-0.829,3.472-0.412,6.801,1.09,10.073c0.082,0.159,0.166,0.319,0.25,0.478
	c0,0,0,0,0.121,0.039l0.043,0.281c1.95,3.546,4.924,5.948,8.926,7.209l0,0c3.151,0.993,6.33,1.062,9.448,0.047
	c0.76-0.295,1.519-0.589,2.195-1.043c0.121,0.038,0.279-0.044,0.317-0.165c2.552-1.328,4.452-3.129,5.823-5.363
	c0.624-1.137,1.089-2.19,1.471-3.402c0.268-0.848,0.376-1.612,0.485-2.379c0.152-0.484,0.145-0.887,0.26-1.251
	c0.196-2.738-0.328-5.301-1.658-7.854c0,0,0,0-0.083-0.159c0,0,0,0-0.082-0.159c0,0,0,0,0.037-0.121l-0.158,0.083l-0.046-0.281
	c-0.084-0.16-0.165-0.319-0.249-0.479c-1.283-2.271-3.123-4.049-5.273-5.26c-0.771-0.511-1.582-0.899-2.554-1.205
	c-0.202-0.197-0.446-0.273-0.809-0.388c-1.213-0.382-2.342-0.604-3.549-0.585c-2.699-0.317-5.265,0.206-7.814,1.536
	C204.739,292.313,204.58,292.396,204.542,292.518z M214.008,298.432c0.728,0.229,1.454,0.458,1.983,0.893
	c0.447,0.273,0.896,0.547,1.302,0.944c0.614,0.591,1.106,1.146,1.399,1.905l0.167,0.318c0.415,0.797,0.709,1.556,0.842,2.398
	c0.046,0.281,0.054,0.684,0.098,0.965c-0.026,0.923-0.172,1.812-0.354,2.818c-0.505,1.175-1.13,2.311-1.921,3.129
	c-0.592,0.612-1.306,1.187-2.103,1.602c-0.919,0.378-1.8,0.634-2.803,0.851c-1.084,0.058-2.25-0.043-3.342-0.387
	c-1.455-0.458-2.675-1.243-3.658-2.353c-0.409-0.395-0.657-0.874-1.027-1.39l-0.249-0.479c-0.211-0.601-0.462-1.078-0.55-1.639
	c-0.346-1.441-0.448-2.807,0.048-4.384c0.345-1.092,1.052-2.067,1.842-2.885c0.511-0.772,1.347-1.31,2.183-1.846
	c0.797-0.416,1.677-0.672,2.518-0.805C211.506,297.91,212.834,297.928,214.008,298.432z"/>
<path fill="#389898" d="M244.296,277.035c-0.122-0.038-0.122-0.038-0.122-0.038c-3.152-0.994-6.368-0.941-9.404,0.235
	c-0.721,0.173-1.357,0.504-2.155,0.92c-0.121-0.039-0.16,0.084-0.32,0.165c-2.431,1.369-4.451,3.131-5.7,5.401
	c-0.744,1.1-1.21,2.151-1.509,3.523c-0.114,0.364-0.229,0.728-0.382,1.213c-0.114,0.364-0.108,0.766-0.223,1.129
	c0.005,0.403-0.108,0.766-0.104,1.167c-0.277,2.578,0.247,5.144,1.454,7.657c0,0,0.12,0.037,0.083,0.158
	c0.122,0.039,0.084,0.159,0.206,0.198c0,0,0,0-0.039,0.12c0,0,0,0,0.121,0.039l0.165,0.32c0.084,0.157,0.167,0.317,0.251,0.476
	c1.282,2.272,2.999,4.013,5.15,5.225c0.772,0.509,1.584,0.896,2.432,1.164c0.365,0.115,0.605,0.191,0.972,0.306
	c1.212,0.382,2.342,0.605,3.508,0.708c2.7,0.316,5.264-0.208,7.938-1.498c0,0,0.159-0.084,0.318-0.167
	c0.638-0.332,1.314-0.785,1.989-1.239c2.584-1.853,4.349-4.493,5.463-7.608c0.039-0.121,0.039-0.121,0.039-0.121
	c1.299-4.123,0.953-8.097-0.959-11.766c-0.082-0.158-0.082-0.158-0.082-0.158l-0.205-0.197
	C251.232,280.82,248.296,278.295,244.296,277.035z M245.774,286.297c0.371,0.519,0.779,0.912,0.99,1.513l0.166,0.319
	c0.212,0.598,0.543,1.237,0.754,1.837c0.225,1.403,0.168,2.852-0.168,4.345c-0.383,1.213-0.932,2.105-1.76,3.046
	c-0.594,0.611-1.309,1.186-2.264,1.684c-0.76,0.294-1.64,0.55-2.482,0.685c-1.16,0.301-2.449,0.161-3.662-0.22
	c-0.728-0.229-1.455-0.459-1.863-0.854c-0.567-0.313-1.015-0.586-1.425-0.981c-0.491-0.556-0.981-1.11-1.397-1.906l-0.25-0.479
	c-0.292-0.759-0.587-1.519-0.639-2.201c-0.166-0.318-0.21-0.6-0.097-0.963c-0.135-0.842,0.05-1.85,0.317-2.699
	c0.421-1.334,1.008-2.348,1.957-3.248c0.473-0.651,1.188-1.227,2.104-1.604c0.798-0.415,1.716-0.792,2.558-0.926
	c1.244-0.14,2.412-0.038,3.466,0.426C243.534,284.525,244.753,285.31,245.774,286.297z"/>
<path fill="#A7C136" d="M247.702,308.098c-0.292-0.758-0.587-1.518-1.041-2.194c0.038-0.12-0.082-0.159-0.044-0.279
	c-2.674,1.29-5.237,1.814-7.938,1.498c0.614,0.592,1.188,1.306,1.604,2.103c0.377,0.919,0.753,1.839,0.849,2.802
	c0.059,1.085-0.042,2.251-0.265,3.382c-0.618,1.539-1.364,2.636-2.353,3.657c-0.517,0.37-0.911,0.778-1.513,0.989l-0.478,0.25
	c-0.516,0.369-1.077,0.46-1.678,0.67c-1.403,0.223-2.853,0.169-4.223-0.131c-1.175-0.503-2.189-1.09-3.045-1.76
	c-0.697-0.752-1.271-1.467-1.686-2.264c-0.536-0.836-0.793-1.716-0.844-2.398c-1.371,2.234-3.271,4.035-5.822,5.363
	c0.084,0.159,0.167,0.318,0.167,0.318c0.415,0.798,0.747,1.436,1.321,2.15c1.853,2.583,4.372,4.31,7.487,5.424
	c0,0,0.122,0.039,0.243,0.077c0.363,0.114,0.727,0.229,1.251,0.26c3.349,0.79,6.642,0.494,9.951-1.128
	c0.121,0.039,0.321-0.166,0.479-0.25c0,0,0,0,0.121,0.038l0.038-0.121l0.158-0.082c3.586-2.07,6.07-4.885,7.332-8.887l0,0
	C248.81,314.312,248.72,311.217,247.702,308.098z"/>
</svg>
